<svg width="60" height="61" viewBox="0 0 60 61" fill="none" xmlns="http://www.w3.org/2000/svg">
<path d="M46.8748 13.3301V30.8301C46.8748 31.8651 46.0348 32.7051 44.9998 32.7051C43.9648 32.7051 43.1248 31.8651 43.1248 30.8301V13.3301C43.1248 11.6076 41.7223 10.2051 39.9998 10.2051H14.9998C13.2773 10.2051 11.8748 11.6076 11.8748 13.3301V45.8301C11.8748 47.5526 13.2773 48.9551 14.9998 48.9551H29.9998C31.0348 48.9551 31.8748 49.7951 31.8748 50.8301C31.8748 51.8651 31.0348 52.7051 29.9998 52.7051H14.9998C11.2073 52.7051 8.12476 49.6226 8.12476 45.8301V13.3301C8.12476 9.53758 11.2073 6.45508 14.9998 6.45508H39.9998C43.7923 6.45508 46.8748 9.53758 46.8748 13.3301ZM37.4998 13.9551H17.4998C16.4648 13.9551 15.6248 14.7951 15.6248 15.8301C15.6248 16.8651 16.4648 17.7051 17.4998 17.7051H37.4998C38.5348 17.7051 39.3748 16.8651 39.3748 15.8301C39.3748 14.7951 38.5348 13.9551 37.4998 13.9551ZM29.3748 23.3301C29.3748 22.2951 28.5348 21.4551 27.4998 21.4551H17.4998C16.4648 21.4551 15.6248 22.2951 15.6248 23.3301C15.6248 24.3651 16.4648 25.2051 17.4998 25.2051H27.4998C28.5348 25.2051 29.3748 24.3651 29.3748 23.3301ZM17.4998 28.9551C16.4648 28.9551 15.6248 29.7951 15.6248 30.8301C15.6248 31.8651 16.4648 32.7051 17.4998 32.7051H19.9998C21.0348 32.7051 21.8748 31.8651 21.8748 30.8301C21.8748 29.7951 21.0348 28.9551 19.9998 28.9551H17.4998Z" fill="#01081B"/>
<g clip-path="url(#clip0_3054_191)">
<path d="M37.4997 53.4134C44.1732 53.4134 49.583 48.0035 49.583 41.33C49.583 34.6566 44.1732 29.2467 37.4997 29.2467C30.8263 29.2467 25.4164 34.6566 25.4164 41.33C25.4164 48.0035 30.8263 53.4134 37.4997 53.4134Z" stroke="#2E68FD" stroke-width="3.86667" stroke-linecap="round" stroke-linejoin="round"/>
</g>
<defs>
<clipPath id="clip0_3054_191">
<rect width="29" height="29" fill="white" transform="translate(22.9998 26.8301)"/>
</clipPath>
</defs>
</svg>
