<svg width="60" height="60" viewBox="0 0 60 60" fill="none" xmlns="http://www.w3.org/2000/svg">
<path d="M47.4998 49.375H14.9998C9.82976 49.375 5.62476 45.17 5.62476 40V20C5.62476 14.83 9.82976 10.625 14.9998 10.625H47.4998C51.2923 10.625 54.3748 13.7075 54.3748 17.5V42.5C54.3748 46.2925 51.2923 49.375 47.4998 49.375ZM14.9998 14.375C11.8973 14.375 9.37476 16.8975 9.37476 20V40C9.37476 43.1025 11.8973 45.625 14.9998 45.625H47.4998C49.2223 45.625 50.6248 44.2225 50.6248 42.5V17.5C50.6248 15.7775 49.2223 14.375 47.4998 14.375H14.9998Z" fill="#01081B"/>
<path d="M52.4997 20.625H42.6997C40.2347 20.625 37.8197 21.6275 36.0747 23.375C34.3022 25.1475 33.3247 27.5 33.3247 30C33.3247 35.17 37.5297 39.375 42.6997 39.375H52.4997C53.5347 39.375 54.3747 38.535 54.3747 37.5V22.5C54.3747 21.465 53.5347 20.625 52.4997 20.625ZM50.6247 35.625H42.6997C39.5972 35.625 37.0747 33.1025 37.0747 30C37.0747 28.5 37.6597 27.09 38.7247 26.025C39.7722 24.9775 41.2222 24.375 42.6997 24.375H50.6247V35.625ZM43.8247 28.675C44.1747 29.025 44.3747 29.5 44.3747 30C44.3747 30.25 44.3247 30.475 44.2247 30.725C44.1497 30.95 43.9997 31.15 43.8247 31.325C43.4747 31.675 42.9997 31.875 42.4997 31.875C41.9997 31.875 41.5247 31.675 41.1747 31.325C40.8247 30.975 40.6247 30.5 40.6247 30C40.6247 29.5 40.8247 29.025 41.1747 28.675C41.8747 27.975 43.1247 27.975 43.8247 28.675Z" fill="#2E68FD"/>
</svg>
