<svg width="60" height="61" viewBox="0 0 60 61" fill="none" xmlns="http://www.w3.org/2000/svg">
<path d="M44.9998 8.95508H12.4998C8.70726 8.95508 5.62476 12.0376 5.62476 15.8301V35.8301C5.62476 39.6226 8.70726 42.7051 12.4998 42.7051H31.0748C32.1098 42.7051 32.9498 41.8651 32.9498 40.8301C32.9498 39.7951 32.1098 38.9551 31.0748 38.9551H12.4998C10.7773 38.9551 9.37476 37.5526 9.37476 35.8301V22.7051H48.1248V30.4051C48.1248 31.4401 48.9648 32.2801 49.9998 32.2801C51.0348 32.2801 51.8748 31.4401 51.8748 30.4051V15.8301C51.8748 12.0376 48.7923 8.95508 44.9998 8.95508ZM9.37476 18.9551V15.8301C9.37476 14.1076 10.7773 12.7051 12.4998 12.7051H44.9998C46.7223 12.7051 48.1248 14.1076 48.1248 15.8301V18.9551H9.37476ZM24.9998 31.4551C26.0348 31.4551 26.8748 32.2951 26.8748 33.3301C26.8748 34.3651 26.0348 35.2051 24.9998 35.2051H22.4998C21.4648 35.2051 20.6248 34.3651 20.6248 33.3301C20.6248 32.2951 21.4648 31.4551 22.4998 31.4551H24.9998ZM17.4998 31.4551C18.5348 31.4551 19.3748 32.2951 19.3748 33.3301C19.3748 34.3651 18.5348 35.2051 17.4998 35.2051H14.9998C13.9648 35.2051 13.1248 34.3651 13.1248 33.3301C13.1248 32.2951 13.9648 31.4551 14.9998 31.4551H17.4998Z" fill="#01081B"/>
<path d="M51.8648 29.29L43.4298 24.5325C42.0598 23.76 40.4323 23.7625 39.0723 24.5325L30.6348 29.29C29.0873 30.165 28.1248 31.875 28.1248 33.76V34.58C28.1248 43.115 33.3123 50.54 40.7398 52.635C40.9073 52.6825 41.0798 52.705 41.2498 52.705C41.4198 52.705 41.5923 52.68 41.7598 52.635C49.1873 50.54 54.3748 43.115 54.3748 34.58V33.76C54.3748 31.875 53.4123 30.165 51.8648 29.29ZM50.6248 34.58C50.6248 41.2425 46.7973 47.0325 41.2498 48.87C35.7023 47.035 31.8748 41.2425 31.8748 34.58V33.76C31.8748 33.2425 32.1173 32.76 32.4748 32.5575L40.9148 27.8C41.0248 27.7375 41.1373 27.7075 41.2498 27.7075C41.3623 27.7075 41.4773 27.7375 41.5873 27.8L50.0248 32.5575C50.3848 32.76 50.6248 33.2425 50.6248 33.76V34.58ZM46.3248 34.505C47.0573 35.2375 47.0573 36.425 46.3248 37.1575L41.3248 42.1575C40.9598 42.5225 40.4798 42.7075 39.9998 42.7075C39.5198 42.7075 39.0398 42.525 38.6748 42.1575L36.1748 39.6575C35.4423 38.925 35.4423 37.7375 36.1748 37.005C36.9073 36.2725 38.0948 36.2725 38.8273 37.005L40.0023 38.18L43.6773 34.505C44.4098 33.7725 45.5973 33.7725 46.3298 34.505H46.3248Z" fill="#2E68FD"/>
</svg>
