<svg width="75" height="75" viewBox="0 0 75 75" fill="none" xmlns="http://www.w3.org/2000/svg">
<path d="M63.75 26.25C69.9632 26.25 75 31.2868 75 37.5C75 43.7132 69.9632 48.75 63.75 48.75L11.25 48.75C5.0368 48.75 -2.71588e-07 43.7132 0 37.5C2.71588e-07 31.2868 5.0368 26.25 11.25 26.25L63.75 26.25Z" fill="#7094F4"/>
<path d="M26.2502 11.25C26.2502 5.0368 31.287 0 37.5002 0C43.7134 0 48.7502 5.0368 48.7502 11.25V63.75C48.7502 69.9632 43.7134 75 37.5002 75C31.287 75 26.2502 69.9632 26.2502 63.75V11.25Z" fill="#7094F4"/>
<path d="M26.2502 11.25C26.2502 5.0368 31.287 0 37.5002 0C43.7134 0 48.7502 5.0368 48.7502 11.25V63.75C48.7502 69.9632 43.7134 75 37.5002 75C31.287 75 26.2502 69.9632 26.2502 63.75V11.25Z" fill="white" fill-opacity="0.4" style="mix-blend-mode:screen"/>
<path d="M64.0183 48.1079C68.4119 52.5015 68.4119 59.6248 64.0183 64.0183C59.6248 68.4119 52.5015 68.4119 48.1079 64.0183L10.9836 26.894C6.59009 22.5005 6.59009 15.3772 10.9836 10.9836C15.3772 6.59009 22.5005 6.59009 26.894 10.9836L64.0183 48.1079Z" fill="#7094F4"/>
<path d="M64.0183 48.1079C68.4119 52.5015 68.4119 59.6248 64.0183 64.0183C59.6248 68.4119 52.5015 68.4119 48.1079 64.0183L10.9836 26.894C6.59009 22.5005 6.59009 15.3772 10.9836 10.9836C15.3772 6.59009 22.5005 6.59009 26.894 10.9836L64.0183 48.1079Z" fill="white" fill-opacity="0.2" style="mix-blend-mode:soft-light"/>
<path d="M48.1079 10.9836C52.5015 6.59009 59.6248 6.59009 64.0183 10.9836C68.4119 15.3772 68.4119 22.5005 64.0183 26.894L26.894 64.0183C22.5005 68.4119 15.3772 68.4119 10.9836 64.0183C6.59009 59.6248 6.59009 52.5015 10.9836 48.1079L48.1079 10.9836Z" fill="#7094F4"/>
<path d="M48.1079 10.9836C52.5015 6.59009 59.6248 6.59009 64.0183 10.9836C68.4119 15.3772 68.4119 22.5005 64.0183 26.894L26.894 64.0183C22.5005 68.4119 15.3772 68.4119 10.9836 64.0183C6.59009 59.6248 6.59009 52.5015 10.9836 48.1079L48.1079 10.9836Z" fill="white" fill-opacity="0.3" style="mix-blend-mode:overlay"/>
<path fill-rule="evenodd" clip-rule="evenodd" d="M37.4998 11.25C36.6713 11.25 35.9998 11.9216 35.9998 12.75V32.4301C35.9998 32.8845 35.9998 33.1117 35.9099 33.2169C35.832 33.3082 35.715 33.3566 35.5953 33.3472C35.4574 33.3363 35.2968 33.1757 34.9755 32.8544L21.0595 18.9385C20.4738 18.3527 19.524 18.3527 18.9382 18.9385C18.3524 19.5242 18.3524 20.474 18.9382 21.0598L32.8542 34.9757C33.1755 35.297 33.3361 35.4577 33.347 35.5956C33.3564 35.7152 33.3079 35.8322 33.2167 35.9101C33.1115 36 32.8843 36 32.4299 36H12.7498C11.9213 36 11.2498 36.6716 11.2498 37.5C11.2498 38.3284 11.9213 39 12.7498 39H32.4299C32.8843 39 33.1115 39 33.2167 39.0898C33.3079 39.1678 33.3564 39.2847 33.347 39.4044C33.3361 39.5423 33.1755 39.703 32.8542 40.0243L18.9382 53.9402C18.3524 54.526 18.3524 55.4758 18.9382 56.0616C19.524 56.6473 20.4737 56.6473 21.0595 56.0616L34.9755 42.1456C35.2968 41.8243 35.4574 41.6637 35.5953 41.6528C35.715 41.6434 35.832 41.6918 35.9099 41.7831C35.9998 41.8883 35.9998 42.1155 35.9998 42.5699V62.25C35.9998 63.0784 36.6713 63.75 37.4998 63.75C38.3282 63.75 38.9998 63.0784 38.9998 62.25V42.5698C38.9998 42.1155 38.9998 41.8883 39.0896 41.7831C39.1676 41.6918 39.2845 41.6434 39.4042 41.6528C39.5421 41.6637 39.7027 41.8243 40.024 42.1456L53.94 56.0616C54.5258 56.6473 55.4755 56.6473 56.0613 56.0616C56.6471 55.4758 56.6471 54.526 56.0613 53.9402L42.1453 40.0243C41.8241 39.703 41.6634 39.5423 41.6526 39.4044C41.6432 39.2848 41.6916 39.1678 41.7829 39.0898C41.8881 39 42.1152 39 42.5696 39H62.2498C63.0782 39 63.7498 38.3284 63.7498 37.5C63.7498 36.6716 63.0782 36 62.2498 36H42.5696C42.1153 36 41.8881 36 41.7829 35.9102C41.6916 35.8322 41.6432 35.7152 41.6526 35.5956C41.6634 35.4577 41.8241 35.297 42.1454 34.9757L56.0613 21.0598C56.6471 20.474 56.6471 19.5242 56.0613 18.9384C55.4755 18.3527 54.5258 18.3527 53.94 18.9384L40.024 32.8544C39.7027 33.1757 39.5421 33.3363 39.4042 33.3472C39.2845 33.3566 39.1676 33.3082 39.0896 33.2169C38.9998 33.1117 38.9998 32.8845 38.9998 32.4302V12.75C38.9998 11.9216 38.3282 11.25 37.4998 11.25Z" fill="white"/>
</svg>
